<?xml version="1.0" encoding="iso-8859-1"?>
<!-- Uploaded to: SVG Repo, www.svgrepo.com, Generator: SVG Repo Mixer Tools -->
<svg fill="#000000" height="800px" width="800px" version="1.1" id="Layer_1" xmlns="http://www.w3.org/2000/svg" xmlns:xlink="http://www.w3.org/1999/xlink" 
	 viewBox="0 0 512 512" xml:space="preserve">
<g>
	<g>
		<path d="M256,0C114.842,0,0,114.842,0,256s114.842,256,256,256c41.702,0,70.844-9.762,89.079-29.858
			c25.336-27.913,21.538-67.098,18.483-98.586c-3.26-33.596-3.029-48.495,6.869-53.76c6.374-3.388,12.604-5.043,19.055-5.043
			c13.329,0,26.547,6.844,39.33,13.457c12.527,6.485,24.363,12.604,37.572,12.604C512,350.822,512,291.465,512,256
			C512,114.842,397.158,0,256,0z M466.389,325.222c-16.828,0-43.477-26.061-76.902-26.061c-9.805,0-20.19,2.244-31.087,8.038
			c-66.133,35.2,51.2,179.2-102.4,179.2C128.751,486.4,25.6,383.249,25.6,256S128.751,25.6,256,25.6S486.4,128.751,486.4,256
			C486.4,309.939,479.275,325.222,466.389,325.222z"/>
	</g>
</g>
<g>
	<g>
		<path d="M262.972,328.576c-28.237,0-51.2,22.963-51.2,51.2s22.963,51.2,51.2,51.2s51.2-22.963,51.2-51.2
			S291.209,328.576,262.972,328.576z M262.972,405.376c-14.114,0-25.6-11.486-25.6-25.6c0-14.114,11.486-25.6,25.6-25.6
			s25.6,11.486,25.6,25.6C288.572,393.89,277.086,405.376,262.972,405.376z"/>
	</g>
</g>
<g>
	<g>
		<path d="M185.591,312.491c-9.591-15.966-27.989-25.89-48.017-25.89c-22.05,0-44.774,15.787-51.746,35.934
			c-5.009,14.498-0.887,28.749,11.034,38.127c5.837,4.591,7.287,11.076,8.977,21.222c1.903,11.435,5.436,32.708,31.735,32.708
			c29.073,0,35.738-20.983,41.097-37.854c2.125-6.69,4.326-13.602,7.799-20.147C194.116,342.204,193.792,326.127,185.591,312.491z
			 M163.874,344.585c-4.565,8.602-7.236,16.998-9.6,24.414c-5.7,17.937-7.415,20.002-16.7,20.002c-2.825,0-3.738-0.512-3.746-0.512
			c-1.135-1.161-2.133-7.185-2.739-10.803c-1.835-11.017-4.335-26.103-18.398-37.154c-2.449-1.929-4.463-4.429-2.662-9.626
			c3.063-8.849,15.121-18.714,27.554-18.714c10.923,0,21.163,5.291,26.086,13.491C166.153,329.813,168.201,336.452,163.874,344.585z
			"/>
	</g>
</g>
<g>
	<g>
		<path d="M146.551,153.19c-10.888,0-21.171,4.523-29.739,13.09c-5.086,5.086-11.503,5.615-21.453,5.862
			c-10.871,0.29-33.502,0.862-33.502,28.792c0,35.285,28.715,64,64,64s64.009-28.723,64.009-64.009
			C189.867,174.601,170.445,153.19,146.551,153.19z M125.867,239.317c-21.171,0-38.4-17.22-38.4-38.391
			c0-1.34,0.102-2.227,0.051-2.603c1.877-0.427,5.786-0.529,8.499-0.589c10.436-0.273,26.214-0.674,38.903-13.363
			c11.639-11.614,29.363-2.901,29.346,16.546C164.267,222.089,147.038,239.317,125.867,239.317z"/>
	</g>
</g>
<g>
	<g>
		<path d="M235.776,54.05c-15.821,0-64,0-64,46.404c0,35.285,28.715,64,64,64c35.516,0,78.404-28.553,78.404-64
			C314.172,83.123,303.992,54.05,235.776,54.05z M235.776,138.846c-21.171,0-38.4-17.229-38.4-38.4
			c0-11.375,2.884-20.804,38.4-20.804c15.872,0,52.804,2.022,52.804,20.804C288.572,119.859,258.338,138.846,235.776,138.846z"/>
	</g>
</g>
<g>
	<g>
		<path d="M423.62,157.867c-1.254-17.05-9.062-32.597-21.999-43.759c-8.363-7.236-16.205-10.76-23.996-10.76
			c-14.413,0-23.322,11.247-32.759,23.159c-2.5,3.166-5.197,6.579-8.226,10.078c-9.941,11.503-18.398,21.965-21.359,33.579
			c-3.575,14.037,1.579,27.179,15.309,39.04c12.561,10.846,25.25,16.35,37.709,16.35c14.362,0,27.785-7.125,39.936-21.188
			C419.413,191.428,424.875,174.916,423.62,157.867z M388.864,187.639c-13.739,15.915-25.276,16.239-41.549,2.185
			c-8.713-7.526-7.748-11.298-7.228-13.338c1.579-6.204,8.721-14.848,15.923-23.177c3.277-3.789,6.204-7.475,8.909-10.914
			c4.113-5.171,10.325-13.013,12.698-13.449c0.026,0,2.176,0.128,7.279,4.523c7.765,6.699,12.45,16.026,13.184,26.249
			C398.839,169.958,395.563,179.874,388.864,187.639z"/>
	</g>
</g>
</svg>