<?xml version="1.0" encoding="iso-8859-1"?>
<!-- Uploaded to: SVG Repo, www.svgrepo.com, Generator: SVG Repo Mixer Tools -->
<svg fill="#000000" height="800px" width="800px" version="1.1" id="Layer_1" xmlns="http://www.w3.org/2000/svg" xmlns:xlink="http://www.w3.org/1999/xlink" 
	 viewBox="0 0 512 512" xml:space="preserve">
<g>
	<g>
		<path d="M460.8,290.901c0-86.443-64.956-157.85-148.599-168.363c-2.074-7.893-6.579-14.72-12.689-19.763l18.526-50.893
			c2.321-6.383,2.014-13.423-0.853-19.576s-8.064-10.914-14.447-13.235l-48.111-17.51C251.733,0.495,248.781,0,245.871,0
			c-10.462,0-20.275,6.451-24.055,16.853L116.745,305.527c-2.321,6.383-2.014,13.423,0.853,19.576
			c2.867,6.153,8.064,10.914,14.447,13.235l48.111,17.51c2.893,1.05,5.845,1.553,8.755,1.553c10.462,0,20.275-6.451,24.055-16.853
			l61.841-169.924c0.128,0,0.256,0.043,0.384,0.043c15.548,0,28.868-9.284,34.901-22.571
			c70.519,9.421,125.107,69.777,125.107,142.805c0,78.302-62.677,142.225-140.501,144.247c-0.102,0-0.196,0-0.299,0
			c-1.178,0.026-2.304,0.051-3.499,0.051H89.6c-4.847,0-9.276,2.748-11.452,7.074l-25.6,51.2c-1.971,3.977-1.775,8.678,0.546,12.45
			C55.45,509.696,59.571,512,64,512h256c4.429,0,8.55-2.304,10.871-6.076c2.347-3.772,2.551-8.474,0.572-12.45l-17.126-34.278
			C396.954,447.753,460.8,376.627,460.8,290.901z M275.2,145.067c-7.057,0-12.8-5.743-12.8-12.8s5.743-12.8,12.8-12.8
			s12.8,5.743,12.8,12.8S282.257,145.067,275.2,145.067z M275.499,93.901c-0.102,0-0.196-0.026-0.299-0.026
			c-21.205,0-38.4,17.195-38.4,38.4c0,11.895,5.521,22.4,14.02,29.44l-61.909,170.078l-48.111-17.51L245.871,25.609l48.111,17.51
			L275.499,93.901z M84.702,486.4l12.8-25.6h188.996l12.8,25.6H84.702z"/>
	</g>
</g>
</svg>