<?xml version="1.0" encoding="iso-8859-1"?>
<!-- Uploaded to: SVG Repo, www.svgrepo.com, Generator: SVG Repo Mixer Tools -->
<svg fill="#000000" height="800px" width="800px" version="1.1" id="Layer_1" xmlns="http://www.w3.org/2000/svg" xmlns:xlink="http://www.w3.org/1999/xlink" 
	 viewBox="0 0 512 512" xml:space="preserve">
<g>
	<g>
		<path d="M494.498,185.634l-230.4-76.8c-2.628-0.879-5.367-1.314-8.098-1.314s-5.47,0.435-8.098,1.314l-230.4,76.8
			C7.049,189.116,0,198.904,0,209.92c0,11.016,7.049,20.804,17.502,24.286l20.898,6.963v42.522l-24.252,48.503l22.904,11.452
			L51.2,315.341l14.148,28.297l22.903-11.452L64,283.691v-33.988l38.4,12.8V363.52c0,38.016,117.564,40.96,153.6,40.96
			s153.6-2.953,153.6-40.96V262.502l84.898-28.296C504.951,230.724,512,220.937,512,209.92
			C512,198.904,504.951,189.116,494.498,185.634z M256,378.88c-65.562,0-107.776-8.764-123.153-15.36
			c15.377-6.596,57.591-15.36,123.153-15.36s107.776,8.764,123.153,15.36C363.776,370.116,321.562,378.88,256,378.88z M384,338.321
			c-36.659-14.234-102.562-15.761-128-15.761s-91.341,1.536-128,15.761v-116.83c8.9-6.596,53.299-17.971,128-17.971
			s119.1,11.375,128,17.971V338.321z M409.6,235.52v-16.64c0-38.016-117.564-40.96-153.6-40.96s-153.6,2.953-153.6,40.96v16.64
			l-76.8-25.6l230.4-76.8l230.4,76.8L409.6,235.52z"/>
	</g>
</g>
</svg>