<?xml version="1.0" encoding="iso-8859-1"?>
<!-- Uploaded to: SVG Repo, www.svgrepo.com, Generator: SVG Repo Mixer Tools -->
<svg fill="#000000" height="800px" width="800px" version="1.1" id="Layer_1" xmlns="http://www.w3.org/2000/svg" xmlns:xlink="http://www.w3.org/1999/xlink" 
	 viewBox="0 0 512.002 512.002" xml:space="preserve">
<g>
	<g>
		<path d="M499.193,288.999l-36.412-21.018l4.113-7.117c7.074-12.245,2.876-27.904-9.37-34.97L166.743,58.011
			c2.21-5.222,3.046-10.94,1.562-16.478c-1.758-6.554-6.05-12.151-11.93-15.548L117.318,3.44c-4.028-2.33-8.431-3.439-12.774-3.439
			c-8.849,0-17.451,4.591-22.195,12.809L3.432,149.497c-3.396,5.879-4.318,12.868-2.56,19.422c1.758,6.562,6.05,12.151,11.93,15.548
			l39.057,22.545c4.028,2.33,8.431,3.43,12.774,3.43c7.859,0,15.369-3.797,20.309-10.368l56.064,32.367
			c0.964,53.777,38.844,98.517,89.395,110.071v143.889h-89.6c-7.074,0-12.8,5.726-12.8,12.8c0,7.074,5.726,12.8,12.8,12.8h204.8
			c7.074,0,12.8-5.726,12.8-12.8c0-7.074-5.726-12.8-12.8-12.8h-89.6v-140.8c20.181,0,38.801-5.649,55.168-14.916l64.393,37.18
			c3.925,2.27,8.346,3.43,12.8,3.43c2.219,0,4.446-0.29,6.622-0.87c6.554-1.758,12.151-6.05,15.548-11.93l4.113-7.117l36.412,21.018
			c3.925,2.27,8.346,3.43,12.8,3.43c2.219,0,4.446-0.29,6.622-0.87c6.562-1.758,12.151-6.05,15.548-11.93l22.545-39.049
			C515.637,311.724,511.439,296.074,499.193,288.999z M64.659,184.842l-39.057-22.545L104.518,25.61l39.057,22.545L64.659,184.842z
			 M256.002,320.001c-43.051,0-78.387-30.763-86.886-71.33l115.012,66.406C275.287,318.141,265.909,320.001,256.002,320.001z
			 M388.362,345.695L98.101,178.117l56.371-97.63l290.253,167.578L388.362,345.695z M463.848,350.226l-36.412-21.018l22.545-39.049
			l36.412,21.018L463.848,350.226z"/>
	</g>
</g>
</svg>