<?xml version="1.0" encoding="iso-8859-1"?>
<!-- Uploaded to: SVG Repo, www.svgrepo.com, Generator: SVG Repo Mixer Tools -->
<svg fill="#000000" version="1.1" id="Layer_1" xmlns="http://www.w3.org/2000/svg" xmlns:xlink="http://www.w3.org/1999/xlink" 
	 viewBox="0 0 512 512" xml:space="preserve">
<g>
	<g>
		<path d="M504.499,237.901l-51.2-51.2c-4.796-4.804-11.307-7.501-18.099-7.501h-76.791H358.4v-76.8
			c0-6.793-2.697-13.303-7.501-18.099l-76.8-76.8C269.107,2.5,262.554,0,256,0s-13.107,2.5-18.099,7.501l-76.8,76.8
			c-4.804,4.796-7.501,11.307-7.501,18.099v76.8H76.8c-6.793,0-13.303,2.697-18.099,7.501l-51.2,51.2C2.697,242.697,0,249.207,0,256
			v230.4C0,500.54,11.46,512,25.6,512h460.8c14.14,0,25.6-11.46,25.6-25.6V256C512,249.207,509.303,242.697,504.499,237.901z
			 M153.6,486.4h-128V281.6h128V486.4z M153.6,256h-128l51.2-51.2h76.8V256z M268.8,486.4h-25.6v-51.2h25.6V486.4z M332.8,486.4
			h-38.4v-51.2c0-14.14-11.46-25.6-25.6-25.6h-25.6c-14.14,0-25.6,11.46-25.6,25.6v51.2h-38.4V204.8h153.6V486.4z M332.8,179.2
			H179.2v-76.8L256,25.6l76.8,76.8V179.2z M486.4,486.4h-128V281.6h128V486.4z M358.4,256v-51.2h0.009H435.2l51.2,51.2H358.4z"/>
	</g>
</g>
<g>
	<g>
		<rect x="51.2" y="409.6" width="76.8" height="25.6"/>
	</g>
</g>
<g>
	<g>
		<rect x="51.2" y="358.4" width="76.8" height="25.6"/>
	</g>
</g>
<g>
	<g>
		<rect x="51.2" y="307.2" width="76.8" height="25.6"/>
	</g>
</g>
<g>
	<g>
		<rect x="384" y="409.6" width="76.8" height="25.6"/>
	</g>
</g>
<g>
	<g>
		<rect x="384" y="358.4" width="76.8" height="25.6"/>
	</g>
</g>
<g>
	<g>
		<rect x="384" y="307.2" width="76.8" height="25.6"/>
	</g>
</g>
<g>
	<g>
		<path d="M256,76.8c-21.171,0-38.4,17.229-38.4,38.4s17.229,38.4,38.4,38.4s38.4-17.229,38.4-38.4S277.171,76.8,256,76.8z M256,128
			c-7.066,0-12.8-5.734-12.8-12.8c0-7.074,5.734-12.8,12.8-12.8c7.066,0,12.8,5.726,12.8,12.8C268.8,122.266,263.066,128,256,128z"
			/>
	</g>
</g>
<g>
	<g>
		<path d="M256,230.4c-21.171,0-38.4,17.229-38.4,38.4v108.8h76.8V268.8C294.4,247.629,277.171,230.4,256,230.4z M268.8,352h-25.6
			v-83.2c0-7.074,5.734-12.8,12.8-12.8c7.066,0,12.8,5.726,12.8,12.8V352z"/>
	</g>
</g>
</svg>